<svg width="60" height="60" viewBox="0 0 80 80" fill="none" xmlns="http://www.w3.org/2000/svg">
<path d="M75.1249 65.1249L39.9999 73.1249L4.87488 65.1249V42.7499H75.1249V65.1249Z" fill="#1493DA"/>
<path d="M40 47.1251C40 47.1251 10.75 46.3751 2.5 34.1251V41.2501C2.5 41.2501 6.5 51.8751 40 51.8751C73.5 51.8751 77.5 41.2501 77.5 41.2501V34.1251C69.25 46.3751 40 47.1251 40 47.1251Z" fill="#B2C1C0"/>
<path d="M40 21.1249C19.25 21.1249 2.5 26.9999 2.5 34.1249C2.5 41.2499 19.25 47.1249 40 47.1249C60.75 47.1249 77.5 41.2499 77.5 34.1249C77.5 26.9999 60.75 21.1249 40 21.1249Z" fill="#E8E8E8"/>
<path d="M40 70.7499C40 70.7499 10.75 69.9999 2.5 57.75V64.875C2.5 64.875 6.5 75.4999 40 75.4999C73.5 75.4999 77.5 64.875 77.5 64.875V57.75C69.25 69.9999 40 70.7499 40 70.7499Z" fill="#B2C1C0"/>
<path d="M75.125 53.2501V57.7501C75.125 64.2501 59.375 69.6251 40 69.6251C20.625 69.6251 4.875 64.3751 4.875 57.7501V53.2501C3.375 54.6251 2.5 56.1251 2.5 57.7501C2.5 64.8751 19.25 70.7501 40 70.7501C60.75 70.7501 77.5 64.8751 77.5 57.7501C77.5 56.1251 76.625 54.6251 75.125 53.2501Z" fill="#E8E8E8"/>
<path d="M39.9999 27.0001C57.1249 27.0001 71.3749 31.1251 74.4999 36.5001C74.9999 35.7501 75.2499 34.8751 75.2499 34.1251C75.2499 27.6251 60.1249 22.2501 39.9999 22.2501C19.8749 22.2501 4.87488 27.7501 4.87488 34.1251C4.87488 34.8751 5.12488 35.7501 5.49988 36.5001C8.74988 31.1251 22.9999 27.0001 39.9999 27.0001Z" fill="#B2C1C0"/>
<path d="M39.9999 45.4999C57.4999 45.4999 71.2499 41.7499 74.4999 36.6249C71.3749 31.1249 57.1249 27.1249 39.9999 27.1249C22.9999 27.1249 8.74988 31.2499 5.49988 36.6249C8.62488 41.7499 22.3749 45.4999 39.9999 45.4999Z" fill="white"/>
<path d="M58.125 29.2501C57.375 28.8751 56.625 28.6251 56 28.6251L10.75 2.5001C10.125 2.2501 8.37497 5.1251 8.99997 5.5001L54.875 30.7501C55.125 31.2501 55.75 31.8751 56.375 32.2501C60.75 34.7501 62.5 31.7501 58.125 29.2501Z" fill="#D3976E"/>
<path d="M42.125 23.7501L44.875 22.2501L42.75 21.0001L40 22.6251L42.125 23.7501Z" fill="#89664C"/>
<path d="M69.25 2.5001L24 28.6251C23.375 28.6251 22.625 28.7501 21.875 29.2501C17.5 31.7501 19.25 34.7501 23.625 32.2501C24.375 31.8751 24.875 31.2501 25.125 30.7501L71 5.5001C71.625 5.1251 69.875 2.2501 69.25 2.5001Z" fill="#D3976E"/>
<path d="M4.87488 66.625V71.3751C4.87488 73.2501 11.8749 73.2501 11.8749 71.3751V66.625H4.87488Z" fill="#B2C1C0"/>
<path d="M8.37488 67.7499C10.3079 67.7499 11.8749 67.2462 11.8749 66.6249C11.8749 66.0036 10.3079 65.4999 8.37488 65.4999C6.44188 65.4999 4.87488 66.0036 4.87488 66.6249C4.87488 67.2462 6.44188 67.7499 8.37488 67.7499Z" fill="#E8E8E8"/>
<path d="M7.25003 48.2501V66.5001C7.25003 66.8751 7.75003 67.1251 8.37503 67.1251C9.00003 67.1251 9.50003 66.8751 9.50003 66.5001V48.2501H7.25003Z" fill="#8A8E91"/>
<path d="M4.87488 42.9999V47.7499C4.87488 49.6249 11.8749 49.6249 11.8749 47.7499V42.9999H4.87488Z" fill="#B2C1C0"/>
<path d="M8.37488 44.125C10.3079 44.125 11.8749 43.6213 11.8749 43C11.8749 42.3787 10.3079 41.875 8.37488 41.875C6.44188 41.875 4.87488 42.3787 4.87488 43C4.87488 43.6213 6.44188 44.125 8.37488 44.125Z" fill="#E8E8E8"/>
<path d="M68.125 66.625V71.3751C68.125 73.2501 75.125 73.2501 75.125 71.3751V66.625H68.125Z" fill="#B2C1C0"/>
<path d="M71.625 67.7499C73.558 67.7499 75.125 67.2462 75.125 66.6249C75.125 66.0036 73.558 65.4999 71.625 65.4999C69.692 65.4999 68.125 66.0036 68.125 66.6249C68.125 67.2462 69.692 67.7499 71.625 67.7499Z" fill="#E8E8E8"/>
<path d="M70.4999 48.2501V66.5001C70.4999 66.8751 70.9999 67.1251 71.6249 67.1251C72.2499 67.1251 72.7499 66.8751 72.7499 66.5001V48.2501H70.4999Z" fill="#8A8E91"/>
<path d="M68.125 42.9999V47.7499C68.125 49.6249 75.125 49.6249 75.125 47.7499V42.9999H68.125Z" fill="#B2C1C0"/>
<path d="M71.625 44.125C73.558 44.125 75.125 43.6213 75.125 43C75.125 42.3787 73.558 41.875 71.625 41.875C69.692 41.875 68.125 42.3787 68.125 43C68.125 43.6213 69.692 44.125 71.625 44.125Z" fill="#E8E8E8"/>
<path d="M48.2501 71.3751V76.1251C48.2501 78.0001 55.2501 78.0001 55.2501 76.1251V71.3751H48.2501Z" fill="#B2C1C0"/>
<path d="M51.7501 72.5C53.6831 72.5 55.2501 71.9963 55.2501 71.375C55.2501 70.7536 53.6831 70.25 51.7501 70.25C49.8171 70.25 48.2501 70.7536 48.2501 71.375C48.2501 71.9963 49.8171 72.5 51.7501 72.5Z" fill="#E8E8E8"/>
<path d="M50.4999 52.9999V71.2499C50.4999 71.6249 50.9999 71.8749 51.6249 71.8749C52.2499 71.8749 52.7499 71.6249 52.7499 71.2499V52.9999H50.4999Z" fill="#8A8E91"/>
<path d="M48.2501 47.7499V52.4999C48.2501 54.3749 55.2501 54.3749 55.2501 52.4999V47.7499H48.2501Z" fill="#B2C1C0"/>
<path d="M51.7501 48.875C53.6831 48.875 55.2501 48.3714 55.2501 47.7501C55.2501 47.1287 53.6831 46.6251 51.7501 46.6251C49.8171 46.6251 48.2501 47.1287 48.2501 47.7501C48.2501 48.3714 49.8171 48.875 51.7501 48.875Z" fill="#E8E8E8"/>
<path d="M24.7501 71.3751V76.1251C24.7501 78.0001 31.7501 78.0001 31.7501 76.1251V71.3751H24.7501Z" fill="#B2C1C0"/>
<path d="M28.2501 72.5C30.1831 72.5 31.7501 71.9963 31.7501 71.375C31.7501 70.7536 30.1831 70.25 28.2501 70.25C26.3171 70.25 24.7501 70.7536 24.7501 71.375C24.7501 71.9963 26.3171 72.5 28.2501 72.5Z" fill="#E8E8E8"/>
<path d="M27.1249 52.9999V71.2499C27.1249 71.6249 27.6249 71.8749 28.2499 71.8749C28.8749 71.8749 29.3749 71.6249 29.3749 71.2499V52.9999H27.1249Z" fill="#8A8E91"/>
<path d="M24.7501 47.7499V52.4999C24.7501 54.3749 31.7501 54.3749 31.7501 52.4999V47.7499H24.7501Z" fill="#B2C1C0"/>
<path d="M28.2501 48.875C30.1831 48.875 31.7501 48.3714 31.7501 47.7501C31.7501 47.1287 30.1831 46.6251 28.2501 46.6251C26.3171 46.6251 24.7501 47.1287 24.7501 47.7501C24.7501 48.3714 26.3171 48.875 28.2501 48.875Z" fill="#E8E8E8"/>
</svg>
